<svg xmlns="http://www.w3.org/2000/svg" viewBox="0 0 32 32" width="32" height="32">
  <defs>
    <linearGradient id="chatGradient" x1="0%" y1="0%" x2="100%" y2="100%">
      <stop offset="0%" stop-color="#3B82F6"/>
      <stop offset="100%" stop-color="#8B5CF6"/>
    </linearGradient>
    <filter id="shadow" x="-20%" y="-20%" width="140%" height="140%">
      <feDropShadow dx="0" dy="2" stdDeviation="2" flood-color="rgba(0,0,0,0.3)"/>
    </filter>
  </defs>
  
  <!-- Background circle with shadow -->
  <circle cx="16" cy="16" r="15" fill="url(#chatGradient)" filter="url(#shadow)"/>
  
  <!-- Chat bubble icon - centered -->
  <g transform="translate(16, 16) scale(0.9)">
    <path 
      d="M8 12h.01M12 12h.01M16 12h.01M21 12c0 4.418-4.03 8-9 8a9.863 9.863 0 01-4.255-.949L3 20l1.395-3.72C3.512 15.042 3 13.574 3 12c0-4.418 4.03-8 9-8s9 3.582 9 8z" 
      stroke="white" 
      stroke-width="2" 
      stroke-linecap="round" 
      stroke-linejoin="round" 
      fill="none"
      transform="translate(-12, -16)"
    />
  </g>
</svg> 